<?xml version="1.0" standalone="no"?>
<!DOCTYPE svg PUBLIC "-//W3C//DTD SVG 20010904//EN"
 "http://www.w3.org/TR/2001/REC-SVG-20010904/DTD/svg10.dtd">
<svg version="1.0" xmlns="http://www.w3.org/2000/svg"
 width="300.000000pt" height="300.000000pt" viewBox="0 0 300.000000 300.000000"
 preserveAspectRatio="xMidYMid meet">
<metadata>
Created by potrace 1.10, written by Peter Selinger 2001-2011
</metadata>
<g transform="translate(0.000000,300.000000) scale(0.100000,-0.100000)"
fill="#000000" stroke="none">
<path d="M1233 2500 c-270 -71 -502 -253 -638 -502 -95 -174 -156 -479 -108
-536 27 -32 64 -37 94 -13 23 18 27 30 33 103 26 316 180 568 437 719 82 47
203 94 272 104 62 9 90 33 90 73 0 72 -50 86 -180 52z m144 -21 c9 -9 8 -19
-3 -40 -14 -28 -28 -34 -67 -31 -10 1 -15 -3 -12 -8 3 -6 -4 -10 -17 -10 -34
-1 -129 -34 -185 -66 -26 -15 -66 -36 -88 -48 -22 -12 -41 -26 -42 -30 -1 -5
-15 -15 -32 -24 -17 -8 -31 -21 -31 -29 0 -8 -4 -12 -9 -9 -9 6 -81 -62 -81
-77 0 -4 -4 -5 -10 -2 -6 3 -7 -1 -4 -9 4 -9 -1 -18 -10 -22 -9 -3 -16 -12
-16 -19 0 -7 -7 -16 -16 -19 -8 -3 -12 -10 -9 -16 3 -5 2 -10 -3 -10 -5 0 -15
-13 -22 -30 -7 -16 -16 -30 -21 -30 -5 0 -9 -8 -9 -17 0 -10 -9 -33 -20 -50
-11 -18 -16 -33 -12 -33 4 0 2 -4 -3 -8 -22 -16 -41 -96 -60 -252 -13 -106
-14 -108 -45 -112 -18 -3 -35 1 -41 9 -13 15 -2 221 12 239 5 7 9 16 7 20 -5
19 65 201 82 214 4 3 10 17 14 33 3 15 14 35 24 45 10 10 33 40 52 67 53 77
199 217 218 210 9 -3 13 -3 9 1 -9 9 76 64 98 64 8 0 15 5 15 10 0 6 6 10 14
10 7 0 19 6 25 14 7 8 44 24 84 35 40 12 79 26 87 31 22 13 114 12 127 -1z"/>
<path d="M1608 2503 c-21 -23 -23 -72 -5 -97 8 -10 40 -23 81 -32 299 -63 555
-289 655 -581 21 -62 51 -214 51 -259 0 -60 82 -86 119 -38 25 32 26 61 6 174
-48 275 -189 505 -407 665 -122 91 -305 169 -422 181 -52 5 -63 4 -78 -13z
m158 -29 c30 -8 54 -20 54 -26 0 -5 7 -8 15 -4 20 7 68 -11 61 -23 -4 -5 2 -8
11 -7 17 3 132 -60 145 -79 4 -5 13 -10 20 -10 7 -1 12 -6 10 -13 -1 -7 5 -12
13 -12 9 0 27 -12 40 -26 14 -15 25 -23 25 -18 0 4 18 -10 40 -31 22 -21 40
-45 40 -52 0 -7 16 -25 35 -40 19 -15 35 -34 35 -41 0 -8 8 -21 19 -30 20 -18
89 -149 114 -217 21 -56 46 -168 53 -242 8 -70 -3 -93 -42 -93 -28 0 -32 6
-39 61 -14 114 -18 135 -26 146 -6 6 -11 32 -12 57 -1 25 -6 46 -10 46 -4 0
-15 17 -23 38 -23 58 -48 107 -56 110 -5 2 -8 12 -8 21 0 10 -11 27 -25 37
-14 10 -25 25 -25 32 0 7 -7 15 -15 18 -8 4 -15 11 -15 16 0 11 -150 157 -159
155 -4 0 -30 15 -60 34 -30 19 -59 33 -64 31 -4 -1 -6 2 -2 7 3 6 -7 13 -22
17 -15 4 -39 13 -53 20 -32 17 -140 49 -160 47 -38 -4 -79 48 -58 75 14 17 79
15 144 -4z"/>
<path d="M1402 2290 c-40 -4 -84 -15 -97 -24 -35 -23 -42 -61 -18 -94 l20 -27
145 4 c129 3 154 1 222 -19 l77 -23 27 20 c33 24 41 76 17 103 -39 43 -252 76
-393 60z m272 -41 c39 -6 70 -17 73 -25 3 -8 12 -14 19 -14 10 0 13 -8 10 -27
-2 -16 -5 -32 -5 -38 -1 -5 -6 -3 -11 5 -5 8 -10 10 -10 4 0 -13 -53 -9 -105
10 -28 10 -78 13 -182 11 -152 -3 -167 1 -156 46 12 44 195 58 367 28z"/>
<path d="M1095 2183 c-115 -61 -233 -190 -301 -328 -63 -128 -78 -196 -79
-345 0 -176 38 -305 130 -445 76 -114 173 -199 301 -263 186 -93 376 -111 574
-55 131 37 178 80 151 139 -19 42 -52 50 -113 26 -105 -43 -176 -55 -288 -50
-251 12 -453 149 -560 381 -32 68 -60 191 -60 261 0 183 112 413 249 511 91
65 101 75 101 109 0 56 -54 86 -105 59z m49 -23 c52 -20 27 -75 -52 -112 -20
-10 -33 -17 -29 -18 4 0 -17 -24 -47 -54 -30 -30 -52 -57 -48 -60 3 -3 0 -6
-7 -6 -6 0 -15 -10 -20 -23 -5 -12 -23 -47 -41 -77 -18 -30 -33 -62 -33 -70 0
-8 -3 -19 -7 -25 -14 -18 -33 -128 -35 -195 -1 -36 7 -101 17 -145 10 -44 20
-93 22 -108 1 -16 7 -32 12 -35 6 -4 26 -34 44 -67 19 -33 37 -62 42 -63 4 -2
6 -8 2 -13 -3 -5 2 -9 10 -9 9 0 16 -5 16 -11 0 -14 77 -88 84 -81 3 3 8 -3
12 -12 4 -9 21 -23 38 -31 17 -8 53 -29 80 -45 27 -17 51 -29 54 -26 2 3 20
-1 38 -9 53 -22 111 -30 210 -30 90 1 244 30 244 47 0 15 88 9 93 -7 4 -8 2
-17 -3 -20 -5 -3 -7 -12 -3 -20 3 -9 -1 -15 -8 -15 -7 0 -21 -8 -32 -18 -15
-12 -18 -13 -12 -2 7 12 6 13 -6 3 -40 -32 -153 -56 -259 -56 -152 1 -158 2
-230 25 -36 12 -70 21 -77 21 -7 0 -10 4 -7 9 3 4 -3 8 -12 8 -10 0 -25 7 -35
16 -9 8 -23 16 -31 18 -7 1 -30 14 -49 29 -20 15 -39 27 -43 27 -12 0 -124
118 -118 124 3 3 0 6 -6 6 -7 0 -12 7 -12 16 0 8 -4 13 -8 10 -4 -3 -16 11
-27 30 -10 19 -22 34 -27 34 -4 0 -8 9 -8 19 0 11 -4 23 -10 26 -5 3 -10 15
-10 26 0 11 -4 17 -10 14 -6 -4 -7 1 -3 11 4 11 -1 22 -12 30 -10 8 -16 17
-12 20 3 4 2 15 -4 26 -6 11 -16 63 -23 116 -12 100 -2 253 22 312 10 27 12
34 12 51 0 5 5 7 11 3 9 -5 10 1 5 22 -4 16 -4 26 0 21 7 -7 39 50 36 64 -1 4
10 17 23 29 14 13 25 27 25 32 0 10 11 24 53 68 16 17 25 30 21 30 -3 0 22 23
56 50 34 28 68 50 75 50 7 0 15 7 19 15 6 18 7 18 40 5z"/>
<path d="M1450 2030 c-27 -27 -26 -71 3 -97 15 -14 41 -22 86 -26 134 -11 269
-109 330 -237 23 -49 26 -67 26 -165 0 -101 -2 -115 -29 -170 -99 -201 -336
-286 -539 -192 -116 54 -210 182 -223 303 -8 78 -20 109 -50 123 -62 28 -110
-24 -99 -107 31 -230 167 -403 373 -474 95 -32 249 -32 344 0 191 66 324 222
364 427 16 80 16 93 1 177 -9 55 -29 117 -48 157 -42 85 -151 197 -235 239
-121 61 -265 81 -304 42z m204 -30 c5 -5 16 -10 24 -10 30 0 139 -76 200 -138
88 -90 141 -220 142 -342 0 -71 -26 -176 -56 -228 -15 -26 -26 -47 -24 -47 7
0 -34 -48 -86 -100 -28 -28 -68 -59 -88 -69 -20 -9 -36 -21 -36 -27 0 -6 -4
-8 -9 -4 -6 3 -25 -3 -44 -14 -62 -34 -214 -48 -277 -24 -8 4 -26 8 -40 10
-14 2 -26 8 -28 14 -2 5 -11 9 -20 9 -25 1 -93 35 -85 43 3 4 0 7 -8 7 -8 0
-34 18 -57 40 -22 22 -45 40 -49 40 -5 0 -13 9 -18 19 -6 11 -25 44 -43 75
-31 52 -44 88 -46 128 0 9 -3 15 -7 12 -10 -6 -18 100 -8 112 5 6 7 13 4 15
-2 3 4 10 14 16 26 16 61 -10 61 -45 0 -37 37 -181 50 -192 3 -3 23 -29 45
-58 105 -139 318 -204 475 -144 14 5 30 10 35 12 6 1 18 9 28 17 9 9 17 13 17
10 0 -4 9 1 19 11 11 9 37 31 59 47 22 17 44 41 50 55 6 14 22 44 36 67 53 88
59 235 14 353 -20 53 -77 133 -115 160 -19 14 -40 30 -46 36 -23 20 -147 65
-184 66 -21 0 -44 5 -50 11 -7 5 -13 6 -13 2 0 -4 -7 -2 -15 5 -18 15 -19 41
-2 59 14 15 164 8 181 -9z"/>
<path d="M2093 1902 c-6 -4 -17 -20 -22 -35 -9 -24 -6 -39 20 -99 107 -244 59
-515 -125 -712 -46 -49 -47 -97 -4 -129 23 -17 30 -18 57 -7 77 32 205 231
247 385 48 177 16 440 -69 567 -17 25 -31 34 -57 36 -19 1 -40 -1 -47 -6z m99
-81 c31 -67 60 -162 54 -177 -3 -9 -1 -12 4 -9 6 4 10 -8 11 -27 0 -18 2 -43
3 -55 3 -22 -9 -161 -17 -198 -16 -80 -46 -165 -64 -183 -7 -7 -13 -22 -13
-33 0 -11 -4 -18 -9 -14 -5 3 -13 -5 -16 -17 -10 -35 -56 -98 -66 -92 -5 3 -9
-1 -9 -8 0 -23 -43 -53 -77 -53 -17 0 -29 2 -27 4 2 2 -2 11 -9 19 -9 12 -9
16 1 19 6 3 12 11 12 19 0 7 11 21 25 30 13 9 27 24 30 35 4 10 12 19 20 19 7
0 16 11 19 25 4 16 11 23 18 19 6 -4 8 -3 5 2 -3 6 1 25 10 44 8 19 24 53 33
75 30 67 42 142 41 253 -2 96 -7 130 -31 197 -24 66 -34 103 -35 130 -2 61 56
44 87 -24z"/>
<path d="M2386 1358 c-8 -13 -22 -51 -30 -85 -59 -229 -236 -447 -450 -555
-121 -61 -212 -86 -352 -94 -304 -20 -584 111 -765 356 -86 117 -89 120 -118
120 -42 0 -71 -26 -71 -65 0 -61 129 -229 255 -331 107 -86 222 -146 370 -190
84 -26 102 -28 275 -28 173 0 191 2 275 27 341 104 594 347 704 675 34 101 37
146 12 171 -29 29 -86 29 -105 -1z m91 -46 c3 -12 0 -35 -6 -50 -6 -15 -13
-40 -15 -56 -14 -82 -157 -323 -213 -359 -7 -4 -13 -14 -13 -20 0 -7 -14 -24
-31 -37 -17 -14 -50 -42 -73 -62 -24 -21 -46 -38 -50 -38 -4 0 -22 -11 -40
-25 -32 -24 -153 -92 -168 -94 -5 -1 -17 -1 -29 -1 -12 0 -18 -4 -13 -11 4 -7
1 -10 -7 -7 -8 3 -27 -1 -42 -9 -15 -8 -32 -11 -37 -8 -5 3 -20 -1 -32 -9 -18
-11 -61 -13 -208 -11 -163 2 -229 6 -237 15 -2 1 -6 3 -10 5 -5 1 -15 4 -23 7
-8 3 -41 13 -72 22 -32 9 -58 20 -58 25 0 7 -69 41 -85 41 -4 0 -30 16 -56 35
-27 19 -54 35 -59 35 -6 0 -10 5 -10 10 0 6 -11 15 -25 22 -13 6 -22 15 -19
19 3 5 0 9 -7 9 -13 0 -89 76 -89 88 0 4 -14 20 -30 36 -16 16 -27 32 -25 36
3 5 -2 10 -10 14 -8 3 -15 12 -15 19 0 8 -9 22 -19 31 -20 18 -22 59 -3 78 20
20 61 0 77 -40 9 -20 21 -41 28 -47 7 -5 30 -32 52 -60 22 -27 43 -52 47 -53
5 -2 6 -8 2 -13 -3 -5 -2 -9 3 -8 15 4 43 -13 37 -22 -3 -5 1 -9 9 -9 8 0 17
-7 21 -15 3 -8 12 -15 20 -15 8 0 16 -4 18 -8 4 -11 157 -103 177 -107 9 -2
38 -13 65 -24 27 -12 56 -21 65 -19 9 1 23 -2 31 -7 20 -12 75 -18 195 -19
128 -1 204 12 320 54 33 12 68 23 77 25 10 2 33 15 51 29 19 14 38 26 44 26 5
0 20 10 33 23 14 12 27 22 30 22 5 0 50 38 95 80 42 39 155 190 155 206 0 9 7
22 14 29 8 6 20 28 27 48 6 20 15 41 20 47 5 5 9 23 9 40 0 17 7 40 15 51 8
10 15 27 15 36 0 9 9 20 20 23 11 4 18 11 14 16 -3 6 4 5 15 -3 12 -7 24 -23
28 -36z"/>
</g>
</svg>
